<?xml version="1.0" encoding="UTF-8" standalone="no"?>
<svg
   xmlns:dc="http://purl.org/dc/elements/1.1/"
   xmlns:cc="http://creativecommons.org/ns#"
   xmlns:rdf="http://www.w3.org/1999/02/22-rdf-syntax-ns#"
   xmlns:svg="http://www.w3.org/2000/svg"
   xmlns="http://www.w3.org/2000/svg"
   xmlns:sodipodi="http://sodipodi.sourceforge.net/DTD/sodipodi-0.dtd"
   xmlns:inkscape="http://www.inkscape.org/namespaces/inkscape"
   sodipodi:docname="i_profileImage.svg"
   inkscape:version="1.0 (4035a4fb49, 2020-05-01)"
   id="svg1084"
   version="1.1"
   viewBox="0 0 29.091 26.732"
   height="26.732mm"
   width="29.091mm">
  <defs
     id="defs1078" />
  <sodipodi:namedview
     inkscape:window-maximized="0"
     inkscape:window-y="0"
     inkscape:window-x="2050"
     inkscape:window-height="1009"
     inkscape:window-width="1300"
     showgrid="false"
     inkscape:document-rotation="0"
     inkscape:current-layer="layer1"
     inkscape:document-units="mm"
     inkscape:cy="355.15018"
     inkscape:cx="288.76005"
     inkscape:zoom="0.7"
     inkscape:pageshadow="2"
     inkscape:pageopacity="0.0"
     borderopacity="1.0"
     bordercolor="#666666"
     pagecolor="#ffffff"
     id="base" />
  <metadata
     id="metadata1081">
    <rdf:RDF>
      <cc:Work
         rdf:about="">
        <dc:format>image/svg+xml</dc:format>
        <dc:type
           rdf:resource="http://purl.org/dc/dcmitype/StillImage" />
        <dc:title></dc:title>
      </cc:Work>
    </rdf:RDF>
  </metadata>
  <g
     id="layer1"
     inkscape:groupmode="layer"
     inkscape:label="Capa 1">
    <g
       inkscape:export-ydpi="130.763"
       inkscape:export-xdpi="130.763"
       id="g1473"
       transform="translate(-65.775517,-82.017005)">
      <path
         style="fill:#666666;fill-opacity:1;fill-rule:nonzero;stroke:none;stroke-width:0.0667559"
         d="m 70.53408,94.925233 c 0.178886,-0.79717 0.29069,-1.61649 0.53666,-2.36938 1.319288,-3.85299 5.008824,-6.53238 9.100854,-6.62095 4.852299,-0.0886 9.078494,3.29941 9.950566,8.01601 1.073319,5.62449 -2.951629,10.961107 -8.698359,11.558987 -5.120629,0.53145 -9.816402,-2.98939 -10.733195,-8.060287 -0.06708,-0.26573 -0.111804,-0.55359 -0.156526,-0.84146 0,-0.55359 0,-1.12933 0,-1.68292 z m 9.883484,9.632497 c 4.91938,0 8.877246,-3.89729 8.899606,-8.768897 0.02236,-4.93804 -3.957865,-8.85747 -9.011411,-8.87961 -4.785216,0 -8.787803,3.98586 -8.787803,8.79104 -0.02236,4.938037 3.913144,8.857467 8.899608,8.857467 z"
         id="path1448" />
      <path
         style="fill:#666666;fill-opacity:1;fill-rule:nonzero;stroke:none;stroke-width:0.0667559"
         d="m 80.372842,101.16974 c -1.677062,0.0443 -3.331763,0.0222 -4.941742,-0.42072 -1.386371,-0.37645 -1.296928,-0.24359 -0.983876,-1.616487 0.26833,-1.21791 0.983876,-2.08151 2.168999,-2.54653 0.402495,-0.17714 0.827351,-0.33215 1.207485,-0.53144 0.357773,-0.17715 0.581382,-0.13287 0.82735,0.155 0.491938,0.57574 1.118041,0.8636 1.90067,0.81932 0.670825,-0.0221 1.207485,-0.3543 1.63234,-0.84146 0.24597,-0.26573 0.447217,-0.33216 0.760268,-0.15501 0.53666,0.26573 1.095681,0.46502 1.609979,0.73074 1.408732,0.68646 1.855949,1.94865 1.990114,3.365837 0,0.11072 -0.201248,0.33216 -0.335413,0.3543 -1.185123,0.24358 -2.370247,0.50931 -3.577731,0.66431 -0.737907,0.0886 -1.498176,0.0222 -2.258443,0.0222 z"
         id="path1452" />
      <path
         style="fill:#666666;fill-opacity:1;fill-rule:nonzero;stroke:none;stroke-width:0.0667559"
         d="m 80.372842,89.035013 c 0.447216,0.11072 0.916793,0.1993 1.36401,0.33216 0.424856,0.13286 0.626103,0.46501 0.849711,0.84146 0.357773,0.64216 0.469577,1.30647 0.53666,2.01507 0.04472,0.44287 0.335412,0.8636 0.156525,1.35076 -0.04472,0.11072 -0.04472,0.24359 -0.111803,0.33216 -0.357774,0.64217 -0.693186,1.30648 -1.118042,1.90436 -0.82735,1.12932 -2.258443,1.2179 -3.108154,0.155 -0.603742,-0.75288 -1.006237,-1.66077 -1.386371,-2.52438 -0.134165,-0.24358 0.04472,-0.64216 0.08944,-0.97432 0.04472,-0.37644 0.111804,-0.73074 0.134165,-1.10718 0.06708,-1.52792 1.386371,-2.30295 2.593856,-2.32509 z"
         id="path1454" />
    </g>
    <rect
       inkscape:export-ydpi="130.763"
       inkscape:export-xdpi="130.763"
       style="opacity:0.4;fill:none;fill-opacity:1;stroke:#000000;stroke-width:0.528;stroke-linejoin:round"
       id="rect1468"
       width="28.562511"
       height="26.204138"
       x="0.264"
       y="0.264"
       ry="5.0390687" />
  </g>
</svg>
