<?xml version="1.0" encoding="UTF-8" standalone="no"?>
<svg
   xmlns:dc="http://purl.org/dc/elements/1.1/"
   xmlns:cc="http://creativecommons.org/ns#"
   xmlns:rdf="http://www.w3.org/1999/02/22-rdf-syntax-ns#"
   xmlns:svg="http://www.w3.org/2000/svg"
   xmlns="http://www.w3.org/2000/svg"
   xmlns:sodipodi="http://sodipodi.sourceforge.net/DTD/sodipodi-0.dtd"
   xmlns:inkscape="http://www.inkscape.org/namespaces/inkscape"
   sodipodi:docname="p_wc.svg"
   inkscape:version="1.0 (4035a4fb49, 2020-05-01)"
   id="svg143"
   version="1.1"
   viewBox="0 0 46.554001 42.709"
   height="42.709mm"
   width="46.554001mm">
  <defs
     id="defs137" />
  <sodipodi:namedview
     inkscape:window-maximized="0"
     inkscape:window-y="0"
     inkscape:window-x="2024"
     inkscape:window-height="1040"
     inkscape:window-width="1300"
     showgrid="false"
     inkscape:document-rotation="0"
     inkscape:current-layer="layer1"
     inkscape:document-units="mm"
     inkscape:cy="202.13203"
     inkscape:cx="91.715729"
     inkscape:zoom="1.4"
     inkscape:pageshadow="2"
     inkscape:pageopacity="0.0"
     borderopacity="1.0"
     bordercolor="#666666"
     pagecolor="#ffffff"
     id="base" />
  <metadata
     id="metadata140">
    <rdf:RDF>
      <cc:Work
         rdf:about="">
        <dc:format>image/svg+xml</dc:format>
        <dc:type
           rdf:resource="http://purl.org/dc/dcmitype/StillImage" />
        <dc:title></dc:title>
      </cc:Work>
    </rdf:RDF>
  </metadata>
  <g
     id="layer1"
     inkscape:groupmode="layer"
     inkscape:label="Capa 1">
    <rect
       ry="8.0507002"
       y="0.42213601"
       x="0.42213601"
       height="41.865208"
       width="45.709846"
       id="rect1468"
       style="opacity:0.4;fill:none;fill-opacity:1;stroke:#000000;stroke-width:0.844272;stroke-linejoin:round" />
    <g
       style="display:inline;fill:#666666;fill-opacity:1"
       id="g2269"
       transform="matrix(0.4285189,0,0,0.46986224,-22.944613,-47.86887)">
      <g
         transform="translate(4.3576536,68.680346)"
         id="g879-6-7"
         style="display:inline;fill:#666666;fill-opacity:1">
        <path
           style="fill:#666666;fill-opacity:1;stroke:#000000;stroke-width:0.264583px;stroke-linecap:butt;stroke-linejoin:miter;stroke-opacity:1"
           d="m 86.862596,66.015573 c 1.205725,11.033082 3.471495,17.119292 6.815373,18.174327 0.45902,2.702711 0.188103,5.587907 3.340867,7.617182 -6.536621,13.389668 22.487784,14.676908 14.298924,4.944485"
           id="path847-2-6"
           sodipodi:nodetypes="cccc" />
        <path
           style="fill:#666666;fill-opacity:1;stroke:#000000;stroke-width:0.264583px;stroke-linecap:butt;stroke-linejoin:miter;stroke-opacity:1"
           d="m 104.76965,96.21703 c 12.17252,2.196578 17.82001,-5.678001 16.97162,-6.397766 4.49535,-2.202427 4.11534,-11.767617 -13.63075,-11.509292 4.5669,-3.879823 5.40138,-20.82086 -4.40994,-21.247928 -13.060771,0.830954 -11.609099,21.234237 -4.409952,23.519717"
           id="path849-7-5"
           sodipodi:nodetypes="ccccc" />
        <path
           style="fill:#666666;fill-opacity:1;stroke:#000000;stroke-width:0.264583px;stroke-linecap:butt;stroke-linejoin:miter;stroke-opacity:1"
           d="m 108.11052,78.309972 -8.819895,2.271789 c -7.030888,6.463713 8.073515,15.588642 22.450645,9.237503"
           id="path851-4-2"
           sodipodi:nodetypes="ccc" />
        <path
           style="fill:#666666;fill-opacity:1;stroke:#000000;stroke-width:0.264583px;stroke-linecap:butt;stroke-linejoin:miter;stroke-opacity:1"
           d="m 94.021575,66.99628 c -1.730641,0.620199 -3.238661,1.561961 -7.158979,-0.980707 -6.905292,-7.3502 10.356053,-7.598517 12.025422,-7.429264"
           id="path853-2-8"
           sodipodi:nodetypes="ccc" />
        <path
           style="fill:#666666;fill-opacity:1;stroke:#000000;stroke-width:0.264583px;stroke-linecap:butt;stroke-linejoin:miter;stroke-opacity:1"
           d="m 103.65997,83.343749 c -1.67539,3.254 13.69796,5.418815 14.64658,1.795386 -0.0388,-3.475545 -6.37372,-3.955637 -8.18758,-3.995935 -3.90179,-0.03097 -5.38195,1.020085 -6.459,2.200549 z"
           id="path855-1-8"
           sodipodi:nodetypes="cccc" />
        <path
           style="fill:#666666;fill-opacity:1;stroke:#000000;stroke-width:0.264583px;stroke-linecap:butt;stroke-linejoin:miter;stroke-opacity:1"
           d="m 105.09359,85.450787 c 3.74996,-2.353685 9.09177,-0.736668 11.35697,1.083814"
           id="path857-8-4"
           sodipodi:nodetypes="cc" />
      </g>
      <path
         id="path971-3-5"
         d="m 113.41882,160.33181 c -3.80636,-0.42966 -7.53335,-1.95464 -9.52406,-3.89696 -2.1399,-2.08788 -2.40837,-4.39428 -0.74256,-6.37927 l 0.27078,-0.32267 0.0505,1.17312 c 0.0581,1.34883 0.24846,2.07104 0.85715,3.25198 0.50824,0.98606 1.67657,2.18186 2.80269,2.86859 3.49599,2.13193 9.49976,2.66948 15.30964,1.37075 1.93416,-0.43235 4.2192,-1.29514 5.10997,-1.92943 0.36124,-0.25722 0.42965,-0.19395 0.22279,0.20608 -0.30742,0.59448 -1.21217,1.39013 -1.97719,1.73876 -2.00791,0.91504 -4.7858,1.64325 -7.37157,1.93244 -1.01769,0.11382 -3.95075,0.10598 -5.00818,-0.0134 z"
         style="display:inline;opacity:1;fill:#666666;fill-opacity:1;stroke:none;stroke-width:0.528;stroke-linejoin:round;stroke-miterlimit:4;stroke-dasharray:none" />
      <path
         id="path973-7-2"
         d="m 109.40498,171.49204 c -2.87586,-0.39059 -5.39786,-1.49391 -6.97343,-3.05074 -1.25001,-1.23516 -1.82101,-2.53258 -1.83135,-4.16125 -0.006,-0.86848 0.0701,-1.37122 0.33033,-2.19487 l 0.16754,-0.53033 0.64554,0.63493 c 2.32813,2.28986 4.97382,3.59707 8.76607,4.33123 0.56214,0.10883 1.09425,0.19787 1.18246,0.19787 0.21812,0 0.85378,0.64366 1.03075,1.04372 0.23002,0.52 0.2295,0.9449 -0.003,2.11158 -0.11459,0.57615 -0.20835,1.19938 -0.20835,1.38496 v 0.33741 l -1.21942,-0.007 c -0.67068,-0.004 -1.5201,-0.0477 -1.88759,-0.0976 z"
         style="display:inline;opacity:1;fill:#666666;fill-opacity:1;stroke:none;stroke-width:0.13334;stroke-linejoin:round;stroke-miterlimit:4;stroke-dasharray:none" />
      <path
         id="path975-0-8"
         d="m 111.57655,163.60024 c -2.62797,-0.26592 -5.11997,-1.29313 -7.04924,-2.90574 -2.58969,-2.16464 -4.28809,-5.2511 -5.159934,-9.37702 l -0.0565,-0.26727 -0.50099,-0.041 c -0.67637,-0.0553 -1.17287,-0.30176 -1.73459,-0.86109 -1.659338,-1.65227 -2.719498,-5.24406 -3.739318,-12.6686 -0.10981,-0.79944 -0.19,-1.46318 -0.17821,-1.47498 0.0118,-0.0118 0.2445,0.0567 0.51714,0.15212 1.39621,0.48884 2.69116,0.47713 3.993288,-0.0361 0.19214,-0.0757 0.37079,-0.13771 0.39699,-0.13772 0.0262,0 0.0476,0.92458 0.0476,2.05464 0,2.19994 0.0435,2.65727 0.40772,4.28289 0.34658,1.54703 1.05663,3.27553 1.813784,4.41536 0.69314,1.04347 1.86142,2.11762 2.6659,2.45108 0.14164,0.0587 0.26889,0.11745 0.28277,0.13053 0.0139,0.0131 -0.11098,0.1753 -0.27748,0.36048 -2.12726,2.36603 -1.59933,5.32516 1.36821,7.66897 3.48675,2.7539 9.39021,4.01773 15.05202,3.22238 0.51348,-0.0721 0.94339,-0.13115 0.95535,-0.13115 0.012,0 -0.0663,0.12796 -0.1739,0.28436 -0.99989,1.45329 -3.31755,2.55995 -5.97205,2.85159 -0.60159,0.0661 -2.11691,0.0811 -2.65862,0.0263 z"
         style="display:inline;opacity:1;fill:#666666;fill-opacity:1;stroke:none;stroke-width:0.13334;stroke-linejoin:round;stroke-miterlimit:4;stroke-dasharray:none" />
      <path
         id="path977-3-1"
         d="m 103.12226,148.85451 c -2.18916,-1.0554 -3.849374,-3.924 -4.513174,-7.79811 -0.17941,-1.04714 -0.25126,-3.55387 -0.1343,-4.68615 0.11333,-1.09724 0.37061,-2.29968 0.7099,-3.3178 1.198734,-3.59715 3.497244,-5.90819 6.760304,-6.79714 0.81857,-0.22301 0.97907,-0.18446 0.42187,0.10133 -3.0572,1.56804 -5.47733,4.24991 -6.636654,7.35446 -0.82281,2.20341 -1.02661,4.91884 -0.54369,7.24413 0.77941,3.75289 3.155194,6.60352 6.166504,7.39903 l 0.55941,0.14778 -1.09346,0.2867 c -0.60141,0.15768 -1.12438,0.28752 -1.16217,0.28852 -0.0378,0.001 -0.27833,-0.0992 -0.53454,-0.22275 z"
         style="display:inline;opacity:1;fill:#666666;fill-opacity:1;stroke:none;stroke-width:0.13334;stroke-linejoin:round;stroke-miterlimit:4;stroke-dasharray:none" />
      <path
         id="path981-1-2"
         d="m 120.61323,154.8065 c -0.0869,-0.10467 -0.66805,-0.43952 -1.29152,-0.74411 -3.06911,-1.49942 -6.86974,-1.68891 -9.30829,-0.4641 l -0.66773,0.33538 -0.45357,-0.34595 c -0.60494,-0.46141 -0.89141,-0.91942 -0.78491,-1.25495 0.12165,-0.38329 1.08996,-1.14269 1.97186,-1.54644 1.61195,-0.73797 4.13798,-0.9333 6.85411,-0.52999 3.06869,0.45565 4.97724,1.50984 5.42219,2.99494 0.19858,0.66282 -0.0293,1.07738 -0.81175,1.47654 -0.62708,0.31991 -0.72343,0.32806 -0.93039,0.0787 z"
         style="display:inline;opacity:1;fill:#666666;fill-opacity:1;stroke:none;stroke-width:0.266681;stroke-linejoin:round;stroke-miterlimit:4;stroke-dasharray:none" />
      <path
         id="path983-5-6"
         d="m 115.66032,155.45234 c -2.35809,-0.27862 -4.69822,-0.78249 -5.44058,-1.17145 -0.3319,-0.1739 -0.33019,-0.17609 0.37645,-0.48007 1.0767,-0.46319 2.66979,-0.70785 3.97025,-0.60975 1.85092,0.13964 3.95537,0.79233 5.28599,1.63945 l 0.55192,0.35137 -0.46772,0.10602 c -0.55553,0.12593 -3.6086,0.24332 -4.27631,0.16443 z"
         style="display:inline;opacity:1;fill:#666666;fill-opacity:1;stroke:none;stroke-width:0.266681;stroke-linejoin:round;stroke-miterlimit:4;stroke-dasharray:none" />
      <path
         id="path1209-4-1"
         d="m 104.91941,148.14419 c -2.82717,-1.05095 -4.80376,-3.50961 -5.620164,-6.99085 -0.38358,-1.63562 -0.32477,-4.51943 0.12678,-6.21647 0.921854,-3.46464 3.158984,-6.2991 6.557444,-8.30832 0.98281,-0.58106 1.10133,-0.61744 2.01131,-0.61744 3.63393,0 6.30463,2.79004 7.24961,7.57356 0.3185,1.61224 0.3163,5.11132 -0.004,6.859 -0.45712,2.49182 -1.38052,4.71809 -2.41634,5.82571 l -0.53942,0.57682 -3.1704,0.80777 c -1.74372,0.44428 -3.21705,0.80465 -3.27405,0.80082 -0.057,-0.004 -0.47122,-0.1436 -0.92045,-0.3106 z"
         style="display:inline;opacity:1;fill:#666666;fill-opacity:1;stroke:none;stroke-width:0.266681;stroke-linejoin:round;stroke-miterlimit:4;stroke-dasharray:none" />
      <path
         id="path1211-0-0"
         d="m 94.176798,135.91489 c -1.00753,-0.32637 -2.300233,-0.99969 -2.8558,-1.48748 -0.582049,-0.51105 -1.213107,-1.49785 -1.429716,-2.23569 -0.738267,-2.51476 3.489316,-4.39412 10.499538,-4.66753 l 2.13815,-0.0834 -0.7074,0.63912 c -1.58561,1.43255 -3.059754,4.21598 -3.433914,6.48382 -0.14789,0.89636 -0.2437,1.00135 -1.20038,1.31541 -1.053498,0.34584 -2.017838,0.35729 -3.010478,0.0357 z"
         style="display:inline;opacity:1;fill:#666666;fill-opacity:1;stroke:none;stroke-width:0.266681;stroke-linejoin:round;stroke-miterlimit:4;stroke-dasharray:none" />
      <path
         id="path1213-8-5"
         d="m 112.66751,170.74535 c 0.28249,-2.38452 0.2741,-2.74206 -0.0768,-3.27224 -0.41548,-0.62783 -0.67757,-0.75326 -2.17733,-1.042 -3.5009,-0.674 -6.25305,-2.02357 -8.50965,-4.17285 l -0.75884,-0.72275 0.25026,-0.58384 0.25026,-0.58383 -0.4564,-0.28208 c -0.52395,-0.32382 -1.465394,-1.35185 -1.761794,-1.92384 -0.40925,-0.78978 -0.70679,-1.87988 -0.9095,-3.3322 -0.29753,-2.13167 -0.25018,-2.02001 -1.04765,-2.47008 -2.629278,-1.48387 -4.479338,-6.33014 -5.69675,-14.92276 -0.362532,-2.55877 -0.407665,-2.38666 0.49915,-1.90339 0.422622,0.22523 0.777822,0.41489 0.789342,0.42146 0.0115,0.007 0.15057,0.94405 0.30899,2.08329 1.19514,8.59469 2.72309,12.45894 5.123378,12.95723 0.73613,0.15282 0.75873,0.1709 0.89515,0.71583 1.469544,5.87002 4.394564,9.52742 8.948914,11.18955 4.13498,1.50908 9.28992,0.72815 11.53698,-1.74776 0.58507,-0.64465 0.78908,-0.78058 1.29576,-0.86331 0.7686,-0.12549 3.34884,-0.90184 4.17608,-1.25651 0.34913,-0.14968 0.63477,-0.22592 0.63477,-0.16942 0,0.0565 -0.17086,0.37214 -0.37969,0.70142 -1.598,2.5198 -5.29886,4.61659 -9.30915,5.27429 -1.05446,0.17293 -1.82889,0.20152 -3.67463,0.13565 -1.28624,-0.0459 -2.63148,-0.11856 -2.98943,-0.16147 -0.51328,-0.0615 -0.63815,-0.0396 -0.59089,0.10376 0.0985,0.29888 2.11453,0.51919 4.41572,0.48256 1.15771,-0.0184 2.10485,0.0158 2.10474,0.076 -10e-5,0.0603 0.18326,0.37618 0.40747,0.70206 0.93435,1.35803 1.16212,2.49088 0.68359,3.39996 -0.13481,0.2561 -0.5316,0.66049 -0.88176,0.89864 -0.68729,0.46744 -2.12766,0.97016 -2.77962,0.97016 h -0.40383 z"
         style="display:inline;opacity:1;fill:#666666;fill-opacity:1;stroke:none;stroke-width:0.266681;stroke-linejoin:round;stroke-miterlimit:4;stroke-dasharray:none" />
      <path
         id="path1215-8-0"
         d="m 112.75203,158.82184 c -1.81779,-0.26849 -3.30842,-0.71444 -4.77271,-1.42787 -2.20536,-1.07448 -3.70428,-2.79186 -4.24346,-4.86191 -0.2515,-0.96557 -0.27442,-2.77772 -0.0376,-2.97166 0.0919,-0.0752 2.18158,-0.65773 4.6438,-1.29442 l 4.47676,-1.15763 2.34182,0.14377 c 3.48928,0.21421 5.63696,0.61452 7.79711,1.45331 2.27693,0.88414 4.06647,2.31247 4.81658,3.84439 0.45277,0.92468 0.60413,2.27393 0.35448,3.15994 -0.15275,0.54208 -0.21662,0.59659 -1.32078,1.12733 -3.06192,1.47176 -6.6509,2.19493 -10.75541,2.16716 -1.19059,-0.008 -2.67587,-0.0901 -3.30061,-0.18241 z m 7.52518,-3.21339 c 1.71824,-0.3525 2.72174,-1.21445 2.55114,-2.19129 -0.11596,-0.66404 -0.62493,-1.50898 -1.14958,-1.90843 -1.5069,-1.14732 -4.32453,-1.84189 -7.47841,-1.84348 -2.65868,-10e-4 -4.26483,0.44833 -5.68662,1.59209 -2.44756,1.96893 0.89768,4.03796 7.44553,4.60506 0.98302,0.0851 3.34108,-0.0536 4.31794,-0.25395 z"
         style="display:inline;opacity:1;fill:#666666;fill-opacity:1;stroke:none;stroke-width:0.266681;stroke-linejoin:round;stroke-miterlimit:4;stroke-dasharray:none" />
    </g>
    <path
       id="path1448"
       d="m 8.1205143,19.965185 c 0.286279,-1.27361 0.465204,-2.5826 0.85884,-3.78546 2.1113147,-6.15575 8.0158427,-10.4365003 14.5644927,-10.5780003 7.765351,-0.14155 14.52872,5.2713203 15.924331,12.8068303 1.71768,8.98601 -4.72362,17.51209 -13.920361,18.4673 -8.19477,0.84907 -15.7096227,-4.77602 -17.1768077,-12.87758 -0.107351,-0.42455 -0.178925,-0.88445 -0.250495,-1.34438 0,-0.88443 0,-1.80427 0,-2.68871 z m 15.8169727,15.38943 c 7.872699,0 14.20665,-6.22653 14.242429,-14.0097 0.0358,-7.88929 -6.333939,-14.1511903 -14.421349,-14.1865603 -7.658,0 -14.0635127,6.3680303 -14.0635127,14.0450603 -0.03578,7.8893 6.2623727,14.1512 14.2424327,14.1512 z"
       style="fill:#666666;fill-opacity:1;fill-rule:nonzero;stroke:none;stroke-width:0.106743" />
  </g>
</svg>
